<?xml version="1.0" encoding="UTF-8" standalone="no"?><!DOCTYPE svg PUBLIC "-//W3C//DTD SVG 1.1//EN" "http://www.w3.org/Graphics/SVG/1.1/DTD/svg11.dtd"><svg width="100%" height="100%" viewBox="0 0 48 48" version="1.1" xmlns="http://www.w3.org/2000/svg" xmlns:xlink="http://www.w3.org/1999/xlink" xml:space="preserve" xmlns:serif="http://www.serif.com/" style="fill-rule:evenodd;clip-rule:evenodd;stroke-linejoin:round;stroke-miterlimit:1.41421;"><g id="Layer-1" serif:id="Layer 1"><g><path d="M10.233,42.472c0.054,-0.109 0.163,-0.273 0.325,-0.437c0.053,-0.053 0.053,-0.108 0.109,-0.163l-0.056,-0.054c-0.215,-0.11 -0.378,-0.274 -0.541,-0.438c-0.325,-0.326 -0.649,-0.763 -0.866,-1.308c-0.379,-0.982 -0.487,-2.127 -0.325,-3.492c0.053,-0.273 -0.054,-0.326 -0.054,-0.326c-0.325,-0.219 -0.649,-0.492 -0.921,-0.875c-0.541,-0.763 -0.92,-1.853 -0.812,-3.109c-0.217,-0.054 -0.434,-0.109 -0.651,-0.218c-0.541,-0.272 -0.919,-0.709 -1.299,-1.2c-0.163,-0.218 -0.27,-0.327 -0.487,-0.327c-0.217,0 -0.434,0.054 -0.705,0.218c-0.324,0.164 -0.596,0.436 -0.867,0.709c-0.053,0.109 -0.215,0.328 -0.27,0.764c-0.054,1.2 0,5.073 2.709,6.874c0,0 0.161,0.054 0.107,-0.055c-0.055,-0.49 -0.107,-0.928 -0.162,-1.309c-0.108,-0.654 -0.217,-1.2 -0.325,-1.745c-0.217,-0.983 -0.326,-1.746 -0.541,-2.565c0.324,0.764 0.649,1.528 0.921,2.51c0.161,0.49 0.269,1.035 0.432,1.746c0.109,0.654 0.271,1.472 0.271,2.454c0.487,0.983 1.517,2.838 2.762,3.383c0.379,0.162 0.705,0.162 1.083,0.054c-0.054,-0.382 0,-0.71 0.109,-0.927c0.054,-0.109 0.054,-0.109 0.054,-0.164" style="fill:#3a55ff;fill-rule:nonzero;"/><path d="M45.275,32.216c0,-0.437 -0.163,-0.654 -0.271,-0.764c-0.271,-0.273 -0.595,-0.546 -0.867,-0.709c-0.217,-0.164 -0.487,-0.218 -0.704,-0.218c-0.215,0 -0.325,0.164 -0.486,0.326c-0.326,0.492 -0.759,0.928 -1.301,1.201c-0.217,0.109 -0.433,0.164 -0.65,0.219c0.109,1.255 -0.217,2.345 -0.812,3.109c-0.271,0.382 -0.595,0.655 -0.921,0.873c0,0 -0.108,0.054 -0.054,0.327c0.217,1.364 0.054,2.51 -0.326,3.492c-0.215,0.545 -0.541,0.982 -0.866,1.309c-0.162,0.164 -0.324,0.328 -0.541,0.437l-0.055,0.055c0,0.054 0.055,0.109 0.109,0.162c0.163,0.164 0.271,0.328 0.325,0.437l0,0.055c0.109,0.273 0.162,0.545 0.109,0.927c0.378,0.11 0.704,0.11 1.082,-0.054c1.301,-0.547 2.329,-2.4 2.763,-3.383c0,-0.982 0.162,-1.8 0.271,-2.456c0.108,-0.653 0.27,-1.254 0.433,-1.744c0.271,-0.982 0.595,-1.691 0.92,-2.51c-0.162,0.819 -0.325,1.582 -0.541,2.563c-0.108,0.492 -0.217,1.038 -0.325,1.746c-0.054,0.382 -0.109,0.874 -0.162,1.31c0,0.164 0.108,0.109 0.108,0.055c2.762,-1.692 2.816,-5.566 2.762,-6.765" style="fill:#3a55ff;fill-rule:nonzero;"/><path d="M8.392,7.503c0.271,-0.219 0.541,-0.328 0.866,-0.381c-0.217,0.217 -0.378,0.381 -0.542,0.654c-0.162,0.272 -0.324,0.6 -0.324,1.145c0,0.599 0.162,0.927 0.324,1.146c0.164,0.272 0.325,0.437 0.542,0.599c-0.271,0 -0.595,-0.109 -0.866,-0.327c-0.272,-0.218 -0.596,-0.708 -0.596,-1.418c0,-0.709 0.324,-1.145 0.596,-1.418m-6.229,9.164c0.271,-0.109 0.542,-0.163 0.812,-0.163c0.543,0 1.029,0.273 1.409,0.546c0.587,0.422 0.978,0.974 1.326,1.454c1.879,-6.497 7.081,-11.565 13.633,-13.211c0.013,-0.045 0.032,-0.094 0.043,-0.136c0.109,-0.437 0.163,-0.818 0,-1.255c0.269,0.324 0.429,0.755 0.38,1.293c1.116,-0.254 2.267,-0.409 3.448,-0.455c0.017,-0.904 -0.118,-1.698 -0.361,-2.311c-0.272,-0.763 -0.704,-1.255 -1.191,-1.472c-3.9,-1.584 -6.555,2.181 -6.663,2.345l-0.163,0.219c-0.215,0.273 -0.378,0.599 -0.432,0.873c-0.109,0.271 -0.217,0.545 -0.326,0.818c-0.054,-0.273 -0.108,-0.547 -0.108,-0.873c0,-0.219 0.054,-0.492 0.162,-0.818c-2.111,-0.055 -2.599,1.091 -2.708,1.363c0.543,0.49 0.814,0.928 0.921,1.309c0.163,0.491 0.163,0.873 0.054,1.255c-0.054,-0.382 -0.215,-0.709 -0.432,-1.091c-0.217,-0.381 -0.596,-0.709 -1.355,-1.2c-0.541,-0.273 -1.03,-0.328 -1.03,-0.328c-2.274,0 -3.086,1.801 -3.358,3.328l-0.052,0.328l-0.326,0.055c0,0 -1.136,0.107 -1.787,0.98c-0.38,0.492 -0.487,1.146 -0.433,1.965c0.541,-0.108 0.92,-0.055 1.245,0.054c0.434,0.164 0.651,0.328 0.921,0.601c-0.326,-0.11 -0.595,-0.163 -0.975,-0.218l-0.65,0l-0.163,0c-0.162,0.055 -0.325,0.108 -0.432,0.164l-0.109,0.054c0,0 -1.733,1.091 -1.733,2.891c0,0.764 0.054,1.31 0.163,1.746c0.054,-0.055 0.161,-0.11 0.27,-0.11" style="fill:#3a55ff;fill-rule:nonzero;"/><path d="M0.971,21.687c0.597,-0.6 1.355,-0.982 2.113,-0.982c0.704,-0.055 1.408,0.164 1.895,0.545c0.049,0.038 0.09,0.078 0.136,0.116c0.1,-0.772 0.241,-1.531 0.429,-2.271c-0.414,-0.53 -0.814,-1.075 -1.378,-1.499c-0.161,-0.11 -0.378,-0.219 -0.595,-0.328c-0.704,-0.219 -1.299,0.273 -1.299,0.273l-0.271,0.217c-0.109,0.055 -2.005,1.638 -1.084,3.984c0,0 0,-0.055 0.054,-0.055" style="fill:#3a55ff;fill-rule:nonzero;"/><path d="M4.948,23.869c0,-0.681 0.036,-1.354 0.106,-2.017c-0.092,-0.079 -0.188,-0.155 -0.291,-0.22c-0.434,-0.327 -0.975,-0.437 -1.625,-0.437c-0.595,0 -1.246,0.328 -1.733,0.873c-0.217,0.219 -0.38,0.545 -0.542,0.873c-0.324,1.637 -0.757,5.456 1.463,8.184c0.054,0.055 0.161,0.108 0.271,0c0.324,-0.328 0.65,-0.601 1.028,-0.818c0.217,-0.109 0.487,-0.273 0.758,-0.273c0.163,-1.418 0,-2.401 -0.271,-3.109c-0.27,-0.819 -0.541,-1.42 -1.028,-1.965c0.595,0.436 1.028,0.982 1.408,1.801c0.325,0.763 0.597,1.855 0.434,3.327c0.108,0.055 0.163,0.055 0.215,0.11c0.109,0.054 0.163,0.109 0.217,0.163c0.055,0.054 0.109,0.163 0.163,0.219c0.313,0.42 0.63,0.787 1.041,1.009c-1.035,-2.362 -1.614,-4.973 -1.614,-7.72" style="fill:#3a55ff;fill-rule:nonzero;"/><path d="M7.556,33.545c0.107,0.61 0.307,1.153 0.564,1.562c0.272,0.382 0.543,0.656 0.867,0.873c0.157,0.105 0.314,0.208 0.47,0.265c-0.708,-0.841 -1.344,-1.743 -1.901,-2.7" style="fill:#3a55ff;fill-rule:nonzero;"/><path d="M18.845,43.945c0.35,-0.486 0.486,-0.971 0.555,-1.487c-2.579,-0.639 -4.951,-1.809 -6.996,-3.388c-0.092,0.007 -0.183,0.013 -0.275,0.02l0.24,-0.048c-0.863,-0.669 -1.669,-1.411 -2.406,-2.218c-0.036,-0.009 -0.072,-0.014 -0.109,-0.026c-0.108,0 -0.217,-0.055 -0.379,-0.108c-0.109,-0.055 -0.163,0.108 -0.163,0.162c-0.163,1.201 -0.054,2.238 0.271,3.111c0.163,0.49 0.433,0.873 0.704,1.199c0.163,0.164 0.271,0.328 0.488,0.437c0.162,0.11 0.324,0.218 0.487,0.328c0.65,0.381 1.299,0.6 1.95,0.655c0.65,0.053 1.3,-0.11 1.786,-0.601c-0.432,0.546 -1.082,0.819 -1.786,0.819c-0.705,0.053 -1.409,-0.165 -2.113,-0.546c-0.054,-0.055 -0.162,-0.055 -0.217,-0.11c0,0 -0.054,0 -0.107,0.11l0,0.054c-0.108,0.164 -0.217,0.492 -0.162,0.928c0,0.055 0.054,0.219 0.108,0.272l0.161,0.273c0.055,0.109 2.005,3.273 5.58,1.855l0.215,-0.109c0.597,-0.272 0.977,-0.436 1.355,-0.709c0.379,-0.327 0.65,-0.545 0.813,-0.873" style="fill:#3a55ff;fill-rule:nonzero;"/><path d="M19.488,42.479c0.044,0.527 -0.014,1.06 -0.319,1.629c-0.054,0.055 -0.054,0.164 -0.108,0.219c0,0 -0.055,0.109 0,0.218c0.108,0.055 0.217,0.164 0.271,0.218c0.163,0.109 0.325,0.109 0.487,0.109c0.325,0 0.597,-0.055 0.866,-0.163c0.272,-0.109 0.434,-0.164 0.597,-0.382c0.109,-0.164 0.216,-0.383 0.216,-0.654c0.054,0.217 0.108,0.49 0,0.763c-0.107,0.273 -0.324,0.492 -0.596,0.6c-0.269,0.164 -0.595,0.273 -1.029,0.273c-0.378,0 -0.812,-0.109 -1.191,-0.492c-0.108,0.111 -0.217,0.219 -0.325,0.328c-0.324,0.273 -0.65,0.545 -1.137,0.818c0.433,0.545 1.625,1.692 3.682,1.309c2.322,-0.425 2.586,-2.4 2.599,-4.268c-1.379,-0.032 -2.721,-0.211 -4.013,-0.525" style="fill:#3a55ff;fill-rule:nonzero;"/><path d="M38.613,36.525c-0.108,0.055 -0.217,0.11 -0.379,0.11c-0.045,0.009 -0.087,0.014 -0.131,0.021c-0.723,0.811 -1.518,1.559 -2.368,2.236c0.076,0.011 0.151,0.024 0.224,0.033c-0.082,-0.005 -0.164,-0.009 -0.244,-0.016c-2.002,1.588 -4.326,2.784 -6.861,3.462c0.079,0.527 0.239,1.024 0.552,1.519c0.217,0.327 0.433,0.546 0.813,0.872c0.378,0.328 0.758,0.492 1.353,0.711l0.217,0.108c3.575,1.419 5.47,-1.691 5.578,-1.854l0,-0.382c0.054,-0.055 0.054,-0.219 0.109,-0.274c0.054,-0.381 -0.055,-0.707 -0.163,-0.926l0,-0.054c-0.054,-0.11 -0.109,-0.11 -0.109,-0.11c-0.053,0.055 -0.107,0.055 -0.215,0.11c-0.758,0.381 -1.464,0.545 -2.113,0.545c-0.704,0 -1.354,-0.272 -1.788,-0.819c0.489,0.491 1.138,0.655 1.788,0.6c0.649,-0.053 1.3,-0.272 1.95,-0.654c0.163,-0.11 0.325,-0.217 0.487,-0.328c0.163,-0.108 0.325,-0.272 0.488,-0.436c0.27,-0.328 0.541,-0.709 0.704,-1.201c0.325,-0.818 0.433,-1.908 0.271,-3.109c0,0 -0.054,-0.164 -0.163,-0.164" style="fill:#3a55ff;fill-rule:nonzero;"/><path d="M29.569,44.763c-0.379,0.328 -0.813,0.492 -1.191,0.492c-0.434,0 -0.814,-0.164 -1.031,-0.273c-0.27,-0.164 -0.487,-0.328 -0.595,-0.6c-0.109,-0.273 -0.053,-0.492 0,-0.764c0,0.272 0.054,0.491 0.217,0.655c0.108,0.164 0.325,0.271 0.595,0.381c0.271,0.109 0.543,0.164 0.867,0.164c0.162,0 0.325,-0.055 0.488,-0.11c0.107,-0.054 0.216,-0.109 0.271,-0.217c0.053,-0.054 0,-0.218 0,-0.218c-0.055,-0.055 -0.11,-0.164 -0.11,-0.219c-0.303,-0.614 -0.361,-1.156 -0.317,-1.656c-1.289,0.338 -2.633,0.541 -4.013,0.598c0.017,1.853 0.296,3.801 2.597,4.222c2.059,0.382 3.251,-0.764 3.683,-1.309c-0.486,-0.218 -0.812,-0.546 -1.137,-0.818c-0.107,-0.109 -0.216,-0.219 -0.324,-0.328" style="fill:#3a55ff;fill-rule:nonzero;"/><path d="M38.578,36.104c0.011,-0.004 0.026,-0.01 0.036,-0.015c0.162,-0.108 0.324,-0.163 0.487,-0.272c0.325,-0.219 0.595,-0.492 0.866,-0.873c0.34,-0.47 0.576,-1.107 0.639,-1.831c-0.583,1.063 -1.263,2.063 -2.028,2.991" style="fill:#3a55ff;fill-rule:nonzero;"/><path d="M45.004,20.705c0.758,0 1.516,0.382 2.113,0.982c0,0 0,0.054 0.054,0.054c0.974,-2.292 -0.976,-3.927 -1.083,-3.983l-0.271,-0.217c0,0 -0.596,-0.437 -1.301,-0.273c-0.216,0.054 -0.378,0.218 -0.595,0.327c-0.624,0.471 -1.048,1.092 -1.511,1.671c0.177,0.718 0.309,1.455 0.402,2.204c0.093,-0.078 0.188,-0.153 0.296,-0.219c0.488,-0.383 1.192,-0.601 1.896,-0.546" style="fill:#3a55ff;fill-rule:nonzero;"/><path d="M39.317,7.83c-0.163,-0.272 -0.324,-0.437 -0.541,-0.655c0.271,0.055 0.541,0.164 0.867,0.383c0.27,0.217 0.595,0.654 0.595,1.418c0,0.709 -0.325,1.146 -0.595,1.418c-0.272,0.218 -0.543,0.328 -0.867,0.328c0.217,-0.164 0.378,-0.383 0.541,-0.6c0.163,-0.273 0.326,-0.601 0.326,-1.146c0.053,-0.6 -0.163,-0.873 -0.326,-1.146m-10.989,-2.594c-0.001,-0.008 -0.004,-0.017 -0.005,-0.025c-0.055,-0.545 0.108,-0.982 0.379,-1.309c-0.162,0.436 -0.108,0.819 0,1.254c0.014,0.059 0.039,0.122 0.06,0.184c6.52,1.711 11.672,6.821 13.492,13.339c0.381,-0.508 0.794,-1.109 1.45,-1.628c0.38,-0.274 0.813,-0.547 1.409,-0.547c0.27,0 0.542,0.055 0.811,0.164c0.109,0.055 0.163,0.109 0.272,0.109c0.108,-0.437 0.162,-0.982 0.162,-1.745c0,-1.801 -1.733,-2.892 -1.733,-2.892l-0.108,-0.055c-0.109,-0.055 -0.271,-0.164 -0.433,-0.164l-0.163,0c-0.217,-0.055 -0.434,0 -0.651,0c-0.378,0.055 -0.649,0.111 -0.973,0.219c0.215,-0.274 0.487,-0.436 0.921,-0.6c0.324,-0.109 0.703,-0.164 1.245,-0.055c0.108,-0.818 -0.055,-1.472 -0.433,-1.964c-0.651,-0.818 -1.733,-0.982 -1.788,-0.982l-0.325,-0.055l-0.054,-0.326c-0.272,-1.528 -1.084,-3.328 -3.358,-3.328c0,0 -0.487,0.053 -1.03,0.326c-0.758,0.438 -1.136,0.819 -1.353,1.201c-0.217,0.383 -0.38,0.709 -0.433,1.092c-0.109,-0.383 -0.109,-0.764 0.053,-1.256c0.163,-0.381 0.38,-0.873 0.921,-1.31c-0.108,-0.272 -0.595,-1.418 -2.707,-1.363c0.107,0.328 0.162,0.601 0.162,0.818c0,0.328 0,0.601 -0.108,0.873c-0.109,-0.272 -0.217,-0.545 -0.325,-0.818c-0.109,-0.217 -0.271,-0.545 -0.434,-0.873l-0.163,-0.217c-0.107,-0.164 -2.761,-3.874 -6.661,-2.347c-0.487,0.218 -0.921,0.71 -1.191,1.474c-0.221,0.593 -0.356,1.395 -0.341,2.316c1.177,0.057 2.323,0.227 3.433,0.49" style="fill:#3a55ff;fill-rule:nonzero;"/><path d="M47.225,22.942c-0.163,-0.328 -0.325,-0.6 -0.542,-0.873c-0.487,-0.547 -1.137,-0.818 -1.734,-0.873c-0.595,-0.055 -1.19,0.109 -1.624,0.436c-0.166,0.105 -0.312,0.236 -0.449,0.378c0.058,0.611 0.09,1.232 0.09,1.859c0,2.777 -0.591,5.414 -1.647,7.796c0.036,-0.018 0.076,-0.029 0.11,-0.049c0.434,-0.219 0.759,-0.6 1.083,-1.037c0.055,-0.054 0.109,-0.109 0.163,-0.218c0.054,-0.055 0.109,-0.164 0.217,-0.164c0.054,-0.054 0.162,-0.108 0.217,-0.108c-0.163,-1.474 0.109,-2.564 0.433,-3.328c0.38,-0.818 0.812,-1.365 1.407,-1.802c-0.486,0.601 -0.758,1.146 -1.027,1.965c-0.217,0.763 -0.434,1.745 -0.272,3.11c0.272,0.055 0.541,0.163 0.758,0.272c0.38,0.219 0.704,0.492 1.03,0.818c0.107,0.11 0.217,0 0.271,0c2.329,-2.726 1.84,-6.6 1.516,-8.182" style="fill:#3a55ff;fill-rule:nonzero;"/><path d="M15.506,35.1c-0.136,-0.069 -0.238,-0.173 -0.341,-0.275c-0.204,-0.206 -0.408,-0.481 -0.543,-0.824c-0.24,-0.618 -0.308,-1.338 -0.205,-2.195c0.033,-0.171 -0.035,-0.206 -0.035,-0.206c-0.204,-0.138 -0.409,-0.309 -0.578,-0.55c-0.341,-0.479 -0.579,-1.165 -0.511,-1.954c-0.136,-0.035 -0.272,-0.069 -0.409,-0.137c-0.341,-0.171 -0.578,-0.446 -0.818,-0.756c-0.101,-0.137 -0.169,-0.206 -0.306,-0.206c-0.136,0 -0.272,0.035 -0.443,0.138c-0.205,0.103 -0.375,0.274 -0.544,0.447c-0.035,0.067 -0.137,0.206 -0.171,0.479c-0.034,0.755 0,3.192 1.704,4.322c0,0 0.101,0.035 0.068,-0.033c-0.035,-0.309 -0.068,-0.583 -0.103,-0.823c-0.068,-0.412 -0.137,-0.755 -0.205,-1.098c-0.136,-0.618 -0.204,-1.099 -0.34,-1.613c0.204,0.481 0.408,0.961 0.58,1.578c0.101,0.309 0.169,0.653 0.272,1.098c0.067,0.412 0.17,0.926 0.17,1.544c0.306,0.618 0.954,1.784 1.737,2.127c0.238,0.104 0.443,0.104 0.68,0.034c-0.033,-0.24 0,-0.446 0.069,-0.583c0.034,-0.069 0.034,-0.069 0.034,-0.102c0.034,-0.069 0.102,-0.173 0.205,-0.275c0.033,-0.035 0.033,-0.069 0.068,-0.104l-0.035,-0.033Z" style="fill:#e834b1;fill-rule:nonzero;"/><path d="M37.135,28.581c-0.171,-0.172 -0.376,-0.343 -0.545,-0.445c-0.137,-0.104 -0.306,-0.139 -0.443,-0.139c-0.136,0 -0.204,0.103 -0.307,0.206c-0.205,0.309 -0.476,0.584 -0.817,0.755c-0.136,0.069 -0.272,0.104 -0.409,0.137c0.069,0.789 -0.136,1.476 -0.51,1.956c-0.171,0.24 -0.376,0.412 -0.58,0.549c0,0 -0.068,0.034 -0.034,0.206c0.137,0.858 0.034,1.578 -0.204,2.196c-0.136,0.343 -0.341,0.618 -0.545,0.824c-0.102,0.102 -0.205,0.204 -0.341,0.273l-0.033,0.035c0,0.034 0.033,0.069 0.068,0.102c0.101,0.104 0.169,0.206 0.204,0.275l0,0.035c0.068,0.171 0.102,0.342 0.068,0.583c0.238,0.069 0.443,0.069 0.682,-0.035c0.816,-0.342 1.463,-1.509 1.736,-2.127c0,-0.618 0.103,-1.132 0.171,-1.544c0.068,-0.411 0.17,-0.789 0.273,-1.097c0.169,-0.618 0.374,-1.064 0.578,-1.578c-0.103,0.514 -0.204,0.994 -0.34,1.611c-0.069,0.31 -0.137,0.653 -0.205,1.099c-0.033,0.24 -0.068,0.549 -0.101,0.822c0,0.104 0.068,0.069 0.068,0.035c1.737,-1.063 1.77,-3.5 1.737,-4.253c0,-0.275 -0.103,-0.412 -0.171,-0.481" style="fill:#e834b1;fill-rule:nonzero;"/><path d="M20.786,31.806c0,0.034 0.033,0.069 0.033,0.102c0.035,0.069 0.07,0.138 0.138,0.206c0.101,0.138 0.271,0.241 0.51,0.275c0.306,0.069 0.647,0.069 1.056,0c0.068,0 0.17,-0.034 0.205,-0.069l0.306,-0.137c0,0 0.221,-0.119 0.406,-0.534l-2.692,0c0.002,0.007 0.003,0.013 0.004,0.02c0,0.033 0,0.069 0.034,0.137" style="fill:#e834b1;fill-rule:nonzero;"/><path d="M21.331,32.767c-0.273,-0.069 -0.477,-0.206 -0.647,-0.412c-0.069,-0.103 -0.136,-0.206 -0.171,-0.309c0,-0.068 -0.033,-0.103 -0.033,-0.172l0,-0.137c-0.006,-0.03 -0.004,-0.059 -0.006,-0.088l-1.597,0c-0.084,0 -0.171,-0.005 -0.254,-0.013c-0.009,0.069 -0.017,0.136 -0.017,0.205l0.034,0c0.137,0.582 0.408,0.994 0.716,1.269c0.306,0.273 0.647,0.445 0.953,0.549c0.306,0.102 0.58,0.136 0.851,0.171c0.273,0.034 0.545,0.034 0.818,0c-0.273,0.069 -0.545,0.104 -0.818,0.137c-0.271,0 -0.579,0 -0.919,-0.068c-0.341,-0.104 -0.715,-0.24 -1.09,-0.549c-0.272,-0.24 -0.511,-0.583 -0.716,-0.995c-0.102,0.274 -0.271,0.514 -0.476,0.651c-0.477,0.31 -0.987,0.344 -1.498,0.377c0.511,-0.102 1.021,-0.171 1.395,-0.479c0.273,-0.206 0.409,-0.516 0.443,-0.893c0,-0.033 -0.034,-0.068 -0.034,-0.102l0.034,0c0.023,-0.094 0.03,-0.203 0.033,-0.318c-1.199,-0.253 -2.099,-1.324 -2.099,-2.606l0,-0.622c-0.178,-0.051 -0.364,-0.093 -0.556,-0.125c-0.068,0 -0.137,0.034 -0.137,0.034c-0.033,0.035 -0.068,0.104 -0.101,0.137c-0.103,0.104 -0.205,0.172 -0.341,0.275c-0.068,0.033 -0.136,0.068 -0.204,0.103c-0.069,0.034 -0.137,0.068 -0.205,0.103c-0.136,0.068 -0.273,0.137 -0.409,0.171c-0.136,0.035 -0.306,0.068 -0.477,0.103l-0.136,0c-0.069,0 -0.102,0.138 -0.135,0.171c0,0.618 0.169,1.167 0.409,1.544c0.169,0.241 0.339,0.412 0.544,0.55c0.101,0.068 0.204,0.137 0.306,0.171c0.103,0.035 0.204,0.103 0.272,0.103c0.376,0.102 0.75,0.034 1.091,-0.103c0.307,-0.138 0.613,-0.377 0.851,-0.617c-0.204,0.308 -0.477,0.548 -0.783,0.754c-0.307,0.206 -0.75,0.343 -1.192,0.206c-0.068,0 -0.136,-0.034 -0.239,-0.069c-0.067,-0.033 -0.102,0.069 -0.102,0.104c-0.103,0.755 -0.033,1.405 0.171,1.956c0.102,0.308 0.271,0.548 0.442,0.754c0.102,0.102 0.17,0.206 0.307,0.274c0.101,0.069 0.204,0.138 0.306,0.206c0.408,0.24 0.817,0.377 1.226,0.412c0.409,0.034 0.818,-0.069 1.124,-0.378c-0.272,0.343 -0.681,0.514 -1.124,0.514c-0.442,0.035 -0.884,-0.102 -1.328,-0.342c-0.033,-0.035 -0.103,-0.035 -0.136,-0.069c0,0 -0.034,0 -0.068,0.069l0,0.034c-0.069,0.103 -0.137,0.308 -0.102,0.584c0,0.034 0.033,0.136 0.068,0.171l0.102,0.171c0.033,0.069 1.26,2.06 3.508,1.167l0.136,-0.069c0.374,-0.171 0.614,-0.274 0.851,-0.445c0.24,-0.206 0.409,-0.343 0.512,-0.549c0.272,-0.377 0.34,-0.756 0.374,-1.168c0.069,0.412 0.069,0.824 -0.169,1.27c-0.035,0.035 -0.035,0.104 -0.07,0.139c0,0 -0.033,0.067 0,0.135c0.07,0.036 0.137,0.104 0.171,0.138c0.103,0.068 0.205,0.068 0.306,0.068c0.205,0 0.376,-0.033 0.546,-0.102c0.171,-0.068 0.272,-0.104 0.374,-0.239c0.069,-0.104 0.136,-0.241 0.136,-0.412c0.035,0.136 0.068,0.308 0,0.479c-0.067,0.172 -0.204,0.309 -0.374,0.377c-0.17,0.103 -0.374,0.172 -0.647,0.172c-0.238,0 -0.512,-0.069 -0.75,-0.308l-0.204,0.206c-0.205,0.171 -0.408,0.342 -0.715,0.514c0.273,0.343 1.022,1.063 2.316,0.822c1.498,-0.274 1.634,-1.577 1.634,-2.778c0,-1.817 -0.374,-2.641 -0.715,-3.018c-0.578,0.102 -1.089,0.136 -1.566,0.034" style="fill:#e834b1;fill-rule:nonzero;"/><path d="M24.975,32.149l0.308,0.137c0.068,0.035 0.134,0.035 0.204,0.069c0.408,0.033 0.748,0.033 1.054,0c0.205,-0.069 0.376,-0.137 0.512,-0.275c0.034,-0.068 0.102,-0.137 0.137,-0.206c0,-0.033 0.033,-0.068 0.033,-0.103c0,-0.031 0.001,-0.063 0.028,-0.122l-2.667,0c0.181,0.388 0.391,0.5 0.391,0.5" style="fill:#e834b1;fill-rule:nonzero;"/><path d="M34.376,29.233c0,-0.035 -0.033,-0.172 -0.136,-0.172l-0.137,0c-0.169,-0.034 -0.307,-0.067 -0.477,-0.102c-0.136,-0.035 -0.306,-0.104 -0.409,-0.171c-0.066,-0.035 -0.136,-0.07 -0.203,-0.104c-0.068,-0.035 -0.137,-0.069 -0.204,-0.102c-0.137,-0.07 -0.24,-0.173 -0.341,-0.275c-0.035,-0.035 -0.068,-0.104 -0.103,-0.137c0,0 -0.033,-0.069 -0.135,-0.035c-0.19,0.025 -0.374,0.063 -0.549,0.11l0,0.74c0,1.284 -0.902,2.354 -2.102,2.608c0.005,0.067 0.012,0.137 0.028,0.213l0.033,0c0,0.035 -0.033,0.068 -0.033,0.103c0.068,0.377 0.204,0.685 0.442,0.891c0.376,0.31 0.919,0.412 1.397,0.481c-0.511,-0.034 -1.021,-0.069 -1.499,-0.377c-0.237,-0.171 -0.375,-0.412 -0.477,-0.651c-0.169,0.41 -0.409,0.753 -0.715,0.994c-0.375,0.309 -0.749,0.481 -1.09,0.548c-0.341,0.104 -0.647,0.104 -0.92,0.069c-0.272,0 -0.544,-0.069 -0.818,-0.136c0.274,0.034 0.546,0.034 0.818,0c0.273,-0.035 0.546,-0.069 0.852,-0.172c0.307,-0.103 0.646,-0.275 0.954,-0.55c0.306,-0.273 0.579,-0.72 0.715,-1.269l0.035,0c-0.009,-0.034 -0.016,-0.067 -0.02,-0.101c-0.082,0.008 -0.163,0.013 -0.246,0.013l-1.508,0c0,0.018 0.001,0.036 0.001,0.054l0,0.138c0,0.068 -0.033,0.102 -0.033,0.171c-0.035,0.103 -0.103,0.206 -0.171,0.309c-0.17,0.206 -0.374,0.342 -0.647,0.412c-0.442,0.102 -0.987,0.102 -1.566,-0.035c-0.341,0.377 -0.715,1.201 -0.715,3.018c0,1.202 0.135,2.505 1.634,2.78c1.294,0.24 2.044,-0.481 2.316,-0.824c-0.306,-0.137 -0.51,-0.343 -0.715,-0.514l-0.204,-0.206c-0.239,0.206 -0.511,0.308 -0.75,0.308c-0.272,0 -0.51,-0.102 -0.647,-0.171c-0.171,-0.102 -0.306,-0.206 -0.375,-0.377c-0.067,-0.172 -0.034,-0.309 0,-0.48c0,0.171 0.035,0.308 0.137,0.412c0.067,0.102 0.205,0.171 0.375,0.239c0.169,0.069 0.34,0.104 0.545,0.104c0.101,0 0.204,-0.035 0.306,-0.069c0.068,-0.035 0.136,-0.068 0.17,-0.137c0.034,-0.035 0,-0.137 0,-0.137c-0.034,-0.035 -0.067,-0.104 -0.067,-0.138c-0.239,-0.48 -0.239,-0.892 -0.171,-1.269c0.035,0.412 0.136,0.789 0.374,1.166c0.136,0.206 0.273,0.343 0.512,0.549c0.238,0.206 0.477,0.308 0.851,0.447l0.136,0.067c2.248,0.893 3.44,-1.063 3.509,-1.166l0,-0.239c0.033,-0.035 0.033,-0.139 0.068,-0.173c0.033,-0.239 -0.035,-0.445 -0.103,-0.582l0,-0.035c-0.034,-0.069 -0.067,-0.069 -0.067,-0.069c-0.035,0.035 -0.069,0.035 -0.138,0.069c-0.475,0.241 -0.919,0.343 -1.328,0.343c-0.442,0 -0.851,-0.171 -1.124,-0.514c0.307,0.308 0.716,0.412 1.124,0.377c0.409,-0.034 0.818,-0.171 1.227,-0.411c0.101,-0.07 0.204,-0.139 0.306,-0.206c0.103,-0.07 0.204,-0.172 0.307,-0.275c0.17,-0.206 0.341,-0.447 0.443,-0.755c0.204,-0.514 0.272,-1.201 0.169,-1.956c0,0 -0.033,-0.102 -0.101,-0.102c-0.068,0.034 -0.137,0.069 -0.239,0.069c-0.476,0.102 -0.885,-0.035 -1.193,-0.206c-0.306,-0.206 -0.578,-0.446 -0.783,-0.756c0.24,0.275 0.546,0.481 0.853,0.618c0.306,0.138 0.68,0.24 1.089,0.103c0.103,-0.034 0.205,-0.069 0.273,-0.103c0.101,-0.068 0.204,-0.103 0.306,-0.171c0.204,-0.137 0.374,-0.309 0.545,-0.549c0.273,-0.377 0.442,-0.927 0.409,-1.544" style="fill:#e834b1;fill-rule:nonzero;"/><path d="M31.992,17.157c-0.068,-0.515 -0.205,-0.962 -0.512,-1.511c-0.17,-0.273 -0.374,-0.548 -0.715,-0.754c-0.339,-0.206 -0.816,-0.343 -1.362,-0.274c-0.578,0.033 -0.919,0.378 -1.158,0.686c-0.191,0.274 -0.337,0.545 -0.475,0.785l1.266,0c1.034,0 1.927,0.598 2.362,1.47c0.092,-0.083 0.188,-0.161 0.287,-0.23c0.102,-0.07 0.204,-0.104 0.307,-0.172" style="fill:#e834b1;fill-rule:nonzero;"/><path d="M33.558,13.726c-0.101,-0.173 -0.204,-0.275 -0.341,-0.412c0.172,0.033 0.341,0.103 0.546,0.239c0.171,0.139 0.375,0.412 0.375,0.893c0,0.447 -0.204,0.72 -0.375,0.892c-0.17,0.138 -0.341,0.206 -0.546,0.206c0.137,-0.103 0.24,-0.241 0.341,-0.378c0.103,-0.171 0.205,-0.377 0.205,-0.72c0.033,-0.377 -0.102,-0.548 -0.205,-0.72m-8.037,-0.034c0.238,-0.172 0.442,-0.275 0.68,-0.378c0.308,-0.138 0.579,-0.206 0.818,-0.24c-0.101,-0.137 -0.171,-0.309 -0.204,-0.412c-0.069,-0.171 -0.137,-0.377 -0.171,-0.583c-0.034,-0.343 0.069,-0.618 0.239,-0.823c-0.103,0.274 -0.068,0.514 0,0.788c0.068,0.275 0.239,0.583 0.545,0.995c0.682,-0.033 1.192,0.069 1.736,0.206c-0.579,-0.034 -1.089,-0.069 -1.736,0.069c-0.341,0.068 -0.682,0.137 -1.09,0.343c-0.205,0.102 -0.409,0.206 -0.613,0.377c-0.204,0.137 -0.408,0.343 -0.58,0.549l-0.033,0.069c-0.274,0.409 -0.421,0.912 -0.487,1.437l2.821,0c0.131,-0.269 0.266,-0.598 0.526,-0.992c0.069,-0.102 0.138,-0.204 0.239,-0.273l0.137,-0.137c0.033,-0.035 0.101,-0.069 0.169,-0.137c0.103,-0.104 0.239,-0.138 0.409,-0.206c0.136,-0.034 0.308,-0.069 0.477,-0.104c0.647,-0.069 1.192,0.104 1.601,0.378c0.409,0.275 0.612,0.618 0.75,0.926c0.271,0.583 0.306,1.099 0.306,1.613c0.102,-0.035 0.205,-0.069 0.306,-0.104c0.238,-0.068 0.511,-0.068 0.75,0.035c0.273,0.103 0.51,0.275 0.68,0.55c0.171,0.273 0.274,0.616 0.308,0.959c0,0.379 -0.034,0.756 -0.17,1.132c-0.103,0.344 -0.239,0.721 -0.444,1.099c0.103,0.034 0.239,0.102 0.341,0.137c0.068,0.034 0.17,0.068 0.239,0.103c0.102,0.035 0.17,0.035 0.271,0.068c0.171,0 0.376,0 0.512,-0.068c0.17,-0.069 0.306,-0.206 0.443,-0.377c0.272,-0.344 0.545,-0.789 1.021,-1.167c0.239,-0.171 0.512,-0.344 0.886,-0.344c0.171,0 0.34,0.035 0.51,0.104c0.07,0.034 0.103,0.069 0.171,0.069c0.068,-0.275 0.102,-0.618 0.102,-1.099c0,-1.132 -1.089,-1.817 -1.089,-1.817l-0.068,-0.035c-0.069,-0.035 -0.17,-0.104 -0.273,-0.104l-0.102,0c-0.137,-0.033 -0.272,0 -0.409,0c-0.239,0.035 -0.409,0.069 -0.613,0.139c0.136,-0.172 0.306,-0.275 0.579,-0.378c0.204,-0.069 0.443,-0.103 0.783,-0.034c0.068,-0.516 -0.034,-0.928 -0.273,-1.236c-0.409,-0.514 -1.089,-0.618 -1.124,-0.618l-0.204,-0.033l-0.034,-0.206c-0.169,-0.962 -0.681,-2.094 -2.111,-2.094c0,0 -0.306,0.035 -0.648,0.206c-0.476,0.275 -0.715,0.515 -0.85,0.756c-0.137,0.239 -0.24,0.445 -0.274,0.686c-0.067,-0.241 -0.067,-0.48 0.034,-0.789c0.103,-0.241 0.24,-0.549 0.579,-0.824c-0.068,-0.172 -0.374,-0.892 -1.703,-0.858c0.069,0.205 0.102,0.378 0.102,0.515c0,0.206 0,0.377 -0.067,0.549c-0.068,-0.172 -0.138,-0.343 -0.204,-0.514c-0.068,-0.139 -0.171,-0.345 -0.273,-0.55l-0.103,-0.136c-0.068,-0.104 -1.736,-2.437 -4.19,-1.476c-0.306,0.138 -0.578,0.446 -0.748,0.926c-0.306,0.824 -0.376,2.265 0.341,3.809c0.17,-0.173 0.341,-0.309 0.477,-0.446" style="fill:#e834b1;fill-rule:nonzero;"/><path d="M38.531,23.229c-0.103,-0.206 -0.204,-0.378 -0.34,-0.549c-0.306,-0.343 -0.715,-0.514 -1.09,-0.549c-0.375,-0.034 -0.749,0.068 -1.022,0.274c-0.273,0.173 -0.477,0.446 -0.648,0.687c-0.34,0.514 -0.511,1.03 -0.646,1.544c-0.137,0.514 -0.239,0.995 -0.307,1.542c0,-0.547 0.068,-1.028 0.17,-1.577c0.103,-0.514 0.272,-1.064 0.58,-1.647c0.169,-0.274 0.374,-0.582 0.715,-0.788c0.306,-0.241 0.749,-0.377 1.192,-0.344c0.477,0 0.954,0.24 1.328,0.618c0,0 0,0.034 0.035,0.034c0.612,-1.44 -0.613,-2.47 -0.682,-2.504l-0.171,-0.137c0,0 -0.374,-0.275 -0.818,-0.171c-0.135,0.033 -0.237,0.136 -0.374,0.204c-0.409,0.31 -0.68,0.722 -0.987,1.099c-0.17,0.171 -0.341,0.343 -0.579,0.445c-0.239,0.103 -0.477,0.103 -0.682,0.069c-0.204,-0.034 -0.409,-0.102 -0.578,-0.171c-0.17,-0.104 -0.341,-0.172 -0.477,-0.239c-0.306,-0.139 -0.614,-0.139 -0.885,-0.071c-0.217,0.083 -0.41,0.188 -0.584,0.33l0,3.849c0.051,-0.204 0.121,-0.4 0.208,-0.576c0.171,-0.344 0.409,-0.652 0.715,-0.891c0.308,-0.241 0.648,-0.379 1.057,-0.379c-0.375,0.035 -0.716,0.206 -0.989,0.447c-0.272,0.24 -0.477,0.55 -0.612,0.891c-0.136,0.344 -0.239,0.721 -0.239,1.133c-0.033,0.411 0,0.823 0.103,1.235c0.136,0.412 0.341,0.824 0.715,1.166c0.102,0.07 0.205,0.172 0.306,0.241c0.068,0.034 0.103,0.069 0.17,0.102c0.069,0.035 0.137,0.069 0.171,0.069c0.136,0.069 0.238,0.102 0.375,0.137c0.135,0.035 0.272,0.069 0.408,0.069c0.273,0.035 0.579,0 0.818,-0.137c0.273,-0.138 0.477,-0.377 0.682,-0.652c0.033,-0.035 0.066,-0.069 0.101,-0.137c0.035,-0.034 0.068,-0.104 0.136,-0.104c0.034,-0.034 0.102,-0.067 0.137,-0.067c-0.103,-0.928 0.068,-1.613 0.272,-2.093c0.238,-0.515 0.511,-0.858 0.886,-1.133c-0.307,0.377 -0.477,0.721 -0.648,1.236c-0.136,0.479 -0.271,1.097 -0.169,1.955c0.169,0.035 0.34,0.102 0.477,0.172c0.237,0.136 0.442,0.308 0.646,0.514c0.069,0.069 0.137,0 0.17,0c1.465,-1.715 1.159,-4.151 0.954,-5.146" style="fill:#e834b1;fill-rule:nonzero;"/><path d="M31.681,27.051l0,0.936c0.124,-0.033 0.25,-0.064 0.378,-0.092c-0.169,-0.275 -0.306,-0.549 -0.374,-0.824c-0.001,-0.006 -0.003,-0.013 -0.004,-0.02" style="fill:#e834b1;fill-rule:nonzero;"/><path d="M33.115,20.759c0.376,-0.789 0.614,-1.509 0.614,-2.127c0,-0.309 -0.068,-0.583 -0.205,-0.823c-0.136,-0.206 -0.34,-0.378 -0.545,-0.48c-0.204,-0.104 -0.442,-0.104 -0.647,-0.07c-0.204,0.035 -0.409,0.103 -0.578,0.206c-0.103,0.063 -0.205,0.13 -0.305,0.2c0.147,0.332 0.232,0.7 0.232,1.087l0,0.715c0.036,-0.049 0.071,-0.1 0.106,-0.149c-0.032,0.086 -0.068,0.168 -0.106,0.25l0,1.587c0.159,-0.137 0.337,-0.267 0.55,-0.363c0.272,-0.102 0.578,-0.102 0.884,-0.033" style="fill:#e834b1;fill-rule:nonzero;"/><path d="M14.928,17.328c-0.205,0.103 -0.409,0.24 -0.546,0.481c-0.136,0.205 -0.204,0.514 -0.204,0.822c0,0.618 0.204,1.339 0.613,2.127c0.308,-0.068 0.614,-0.068 0.886,0.035c0.216,0.097 0.395,0.212 0.555,0.355l0,-1.483c-0.052,-0.113 -0.103,-0.231 -0.146,-0.347c0.045,0.08 0.095,0.158 0.146,0.235l0,-0.8c0,-0.386 0.085,-0.753 0.231,-1.084c-0.101,-0.072 -0.204,-0.14 -0.31,-0.203c-0.17,-0.104 -0.374,-0.173 -0.579,-0.206c-0.204,-0.035 -0.442,-0.035 -0.646,0.068" style="fill:#e834b1;fill-rule:nonzero;"/><path d="M18.504,14.618c-0.546,-0.034 -1.056,0.068 -1.362,0.274c-0.341,0.206 -0.545,0.515 -0.717,0.754c-0.271,0.516 -0.407,0.996 -0.51,1.511c0.103,0.033 0.204,0.102 0.306,0.172c0.103,0.07 0.199,0.15 0.293,0.234c0.434,-0.873 1.327,-1.474 2.364,-1.474l1.259,0c-0.138,-0.24 -0.285,-0.511 -0.475,-0.785c-0.239,-0.343 -0.613,-0.653 -1.158,-0.686" style="fill:#e834b1;fill-rule:nonzero;"/><path d="M14.11,13.52c0.171,-0.138 0.341,-0.206 0.545,-0.24c-0.136,0.137 -0.238,0.24 -0.341,0.412c-0.101,0.171 -0.204,0.377 -0.204,0.72c0,0.377 0.103,0.583 0.204,0.72c0.103,0.171 0.205,0.275 0.341,0.377c-0.17,0 -0.374,-0.068 -0.545,-0.206c-0.17,-0.137 -0.374,-0.445 -0.374,-0.891c0,-0.447 0.204,-0.72 0.374,-0.892m-3.917,5.764c0.171,-0.069 0.341,-0.104 0.512,-0.104c0.339,0 0.646,0.173 0.884,0.344c0.477,0.343 0.75,0.823 1.023,1.167c0.136,0.171 0.306,0.308 0.442,0.377c0.171,0.068 0.341,0.068 0.511,0.068c0.102,-0.033 0.171,-0.033 0.272,-0.068c0.103,-0.035 0.171,-0.069 0.239,-0.104c0.102,-0.034 0.238,-0.102 0.341,-0.136c-0.204,-0.378 -0.341,-0.755 -0.443,-1.099c-0.102,-0.411 -0.17,-0.788 -0.17,-1.132c0,-0.378 0.101,-0.686 0.306,-0.961c0.171,-0.273 0.442,-0.445 0.681,-0.548c0.273,-0.103 0.546,-0.103 0.75,-0.035c0.102,0.035 0.203,0.069 0.306,0.104c-0.033,-0.514 0.034,-1.03 0.306,-1.613c0.137,-0.308 0.376,-0.653 0.75,-0.926c0.409,-0.274 0.954,-0.412 1.601,-0.378c0.17,0 0.306,0.069 0.476,0.104c0.137,0.068 0.274,0.102 0.409,0.206c0.068,0.033 0.103,0.068 0.171,0.137c0.033,0.033 0.101,0.102 0.136,0.137c0.102,0.102 0.17,0.206 0.238,0.273c0.262,0.362 0.366,0.721 0.523,0.991l2.825,0c-0.067,-0.524 -0.213,-1.027 -0.487,-1.436l-0.033,-0.069c-0.171,-0.206 -0.376,-0.412 -0.58,-0.549c-0.205,-0.171 -0.409,-0.275 -0.612,-0.377c-0.409,-0.171 -0.75,-0.275 -1.091,-0.343c-0.647,-0.103 -1.157,-0.103 -1.737,-0.069c0.545,-0.137 1.056,-0.239 1.737,-0.206c0.306,-0.377 0.477,-0.72 0.546,-0.995c0.068,-0.274 0.101,-0.514 0,-0.788c0.169,0.205 0.272,0.48 0.237,0.823c-0.033,0.206 -0.068,0.412 -0.169,0.583c-0.035,0.103 -0.137,0.275 -0.205,0.412c0.273,0.034 0.546,0.102 0.817,0.24c0.204,0.103 0.443,0.206 0.681,0.378c0.171,0.137 0.341,0.273 0.477,0.446c0.715,-1.544 0.682,-2.951 0.341,-3.809c-0.169,-0.48 -0.442,-0.788 -0.749,-0.926c-2.453,-0.995 -4.121,1.372 -4.19,1.476l-0.102,0.136c-0.136,0.172 -0.238,0.378 -0.272,0.549c-0.069,0.172 -0.137,0.343 -0.205,0.515c-0.033,-0.172 -0.068,-0.343 -0.068,-0.549c0,-0.137 0.035,-0.31 0.103,-0.515c-1.329,-0.034 -1.636,0.686 -1.703,0.858c0.34,0.309 0.511,0.583 0.579,0.824c0.102,0.309 0.102,0.548 0.033,0.789c-0.033,-0.241 -0.136,-0.447 -0.272,-0.686c-0.137,-0.241 -0.374,-0.447 -0.852,-0.756c-0.34,-0.171 -0.646,-0.206 -0.646,-0.206c-1.432,0 -1.942,1.132 -2.112,2.094l-0.035,0.206l-0.204,0.033c0,0 -0.715,0.069 -1.123,0.618c-0.239,0.308 -0.307,0.72 -0.274,1.236c0.341,-0.069 0.58,-0.035 0.785,0.034c0.271,0.103 0.409,0.206 0.578,0.378c-0.204,-0.07 -0.374,-0.104 -0.613,-0.139l-0.409,0l-0.102,0c-0.102,0.035 -0.204,0.069 -0.272,0.104l-0.068,0.035c0,0 -1.091,0.685 -1.091,1.817c0,0.481 0.035,0.824 0.103,1.099c0.033,-0.035 0.102,-0.069 0.17,-0.069" style="fill:#e834b1;fill-rule:nonzero;"/><path d="M16.233,26.823c-0.012,0.082 -0.029,0.165 -0.046,0.248c-0.068,0.274 -0.204,0.549 -0.374,0.824c0.146,0.019 0.285,0.049 0.42,0.084l0,-1.156Z" style="fill:#e834b1;fill-rule:nonzero;"/><path d="M16.052,25.802c-0.034,-0.412 -0.103,-0.789 -0.238,-1.132c-0.138,-0.343 -0.342,-0.652 -0.614,-0.893c-0.272,-0.239 -0.613,-0.411 -0.987,-0.445c0.374,0 0.748,0.171 1.056,0.377c0.306,0.241 0.545,0.549 0.715,0.892c0.115,0.233 0.196,0.498 0.249,0.771l0,-4.038c-0.176,-0.144 -0.37,-0.252 -0.59,-0.335c-0.273,-0.102 -0.579,-0.069 -0.886,0.069c-0.135,0.068 -0.306,0.137 -0.476,0.239c-0.171,0.069 -0.376,0.138 -0.579,0.173c-0.204,0.033 -0.443,0.033 -0.681,-0.069c-0.24,-0.104 -0.409,-0.275 -0.58,-0.447c-0.306,-0.377 -0.579,-0.789 -0.988,-1.097c-0.102,-0.069 -0.238,-0.137 -0.374,-0.206c-0.444,-0.137 -0.818,0.171 -0.818,0.171l-0.17,0.137c-0.068,0.035 -1.26,1.03 -0.681,2.505c0,0 0,-0.035 0.034,-0.035c0.375,-0.377 0.852,-0.616 1.329,-0.616c0.442,-0.035 0.884,0.102 1.192,0.342c0.306,0.241 0.544,0.514 0.715,0.79c0.341,0.583 0.476,1.131 0.579,1.646c0.101,0.515 0.169,1.029 0.169,1.578c-0.068,-0.514 -0.169,-1.028 -0.306,-1.544c-0.136,-0.514 -0.341,-1.028 -0.647,-1.544c-0.169,-0.24 -0.374,-0.514 -0.648,-0.685c-0.271,-0.206 -0.612,-0.275 -1.021,-0.275c-0.375,0 -0.783,0.206 -1.09,0.548c-0.135,0.139 -0.238,0.345 -0.34,0.551c-0.204,1.028 -0.477,3.43 0.92,5.145c0.033,0.035 0.101,0.068 0.169,0c0.205,-0.206 0.409,-0.377 0.647,-0.515c0.137,-0.068 0.308,-0.171 0.477,-0.171c0.103,-0.892 0,-1.51 -0.169,-1.956c-0.171,-0.515 -0.341,-0.892 -0.647,-1.235c0.374,0.274 0.647,0.618 0.884,1.132c0.205,0.48 0.375,1.167 0.273,2.093c0.068,0.035 0.102,0.035 0.136,0.069c0.069,0.035 0.102,0.068 0.137,0.103c0.033,0.034 0.068,0.103 0.103,0.136c0.203,0.276 0.407,0.516 0.68,0.653c0.273,0.138 0.545,0.171 0.818,0.138c0.136,0 0.272,-0.036 0.409,-0.071c0.135,-0.033 0.238,-0.067 0.374,-0.135c0.068,-0.035 0.136,-0.069 0.17,-0.069c0.034,-0.035 0.103,-0.069 0.171,-0.104c0.101,-0.068 0.204,-0.136 0.306,-0.239c0.375,-0.344 0.58,-0.756 0.715,-1.168c0.136,-0.411 0.136,-0.857 0.103,-1.234" style="fill:#e834b1;fill-rule:nonzero;"/></g></g></svg>